<?xml version="1.0" standalone="no"?>
<!DOCTYPE svg PUBLIC "-//W3C//DTD SVG 20010904//EN"
 "http://www.w3.org/TR/2001/REC-SVG-20010904/DTD/svg10.dtd">
<svg version="1.0" xmlns="http://www.w3.org/2000/svg"
 width="512.000000pt" height="512.000000pt" viewBox="0 0 512.000000 512.000000"
 preserveAspectRatio="xMidYMid meet">
<metadata>
Created by potrace 1.16, written by Peter Selinger 2001-2019
</metadata>
<g transform="translate(0.000000,512.000000) scale(0.100000,-0.100000)"
fill="#000000" stroke="none">
<path d="M3474 5105 c-325 -57 -646 -245 -849 -498 -209 -260 -315 -558 -315
-887 0 -226 41 -412 134 -606 193 -402 535 -674 975 -775 112 -26 366 -36 482
-20 622 88 1108 562 1205 1174 20 126 14 403 -11 517 -59 269 -189 505 -385
700 -196 197 -430 326 -700 385 -105 23 -426 29 -536 10z m539 -194 c218 -55
411 -165 572 -326 333 -333 448 -811 300 -1252 -115 -345 -376 -626 -703 -758
-470 -190 -994 -79 -1348 287 -306 316 -421 749 -309 1167 122 455 495 807
950 895 125 24 132 25 280 21 114 -3 162 -9 258 -34z"/>
<path d="M3490 4770 c-11 -11 -22 -30 -25 -42 -3 -13 -4 -328 -3 -700 l3 -676
24 -26 24 -26 202 0 c188 0 203 1 223 20 12 11 24 31 27 43 3 12 4 330 3 705
l-3 684 -24 19 c-21 17 -41 19 -227 19 -190 0 -205 -1 -224 -20z m300 -725 l0
-575 -75 0 -75 0 0 575 0 575 75 0 75 0 0 -575z"/>
<path d="M3492 3120 c-30 -28 -34 -62 -30 -257 3 -166 4 -172 27 -197 l24 -26
204 0 c272 0 256 -18 251 274 -4 245 17 226 -252 226 -188 0 -204 -1 -224 -20z
m298 -230 l0 -80 -75 0 -75 0 0 80 0 80 75 0 75 0 0 -80z"/>
<path d="M985 3303 c-115 -16 -221 -61 -321 -137 -100 -75 -167 -167 -217
-301 l-31 -80 -4 -252 -4 -253 -62 -62 c-76 -76 -101 -137 -100 -244 0 -174
147 -323 317 -324 l52 -1 42 -88 c30 -64 61 -108 112 -163 l71 -75 -62 -7
c-85 -10 -209 -50 -296 -97 -212 -113 -366 -297 -444 -529 l-32 -95 -4 -277
c-4 -269 -3 -277 17 -297 l21 -21 1280 0 c1261 0 1280 0 1300 20 11 11 22 31
26 45 4 15 4 131 1 258 -5 250 -15 312 -72 448 -121 287 -413 509 -717 545
l-56 7 50 50 c56 56 127 161 157 230 l19 44 69 5 c118 9 225 84 276 196 33 72
31 198 -4 272 -28 58 -68 105 -112 135 l-27 17 0 237 c0 270 -6 307 -71 440
-67 136 -199 256 -349 315 -97 39 -179 46 -493 45 -166 -1 -315 -4 -332 -6z
m710 -188 c130 -34 248 -132 309 -257 48 -98 56 -149 56 -359 l0 -179 -181 0
c-207 0 -233 7 -277 73 -26 40 -27 44 -30 229 l-4 188 -84 0 -84 0 0 -54 c0
-133 -42 -237 -131 -321 -32 -31 -84 -68 -116 -83 -58 -27 -60 -27 -317 -30
l-258 -3 4 208 c5 180 8 216 27 267 56 155 187 279 341 322 71 20 668 19 745
-1z m-205 -867 c18 -21 58 -50 96 -69 61 -30 76 -33 185 -37 l119 -4 0 -162
c0 -179 -10 -230 -61 -336 -47 -94 -161 -206 -259 -253 -229 -108 -471 -66
-650 113 -131 131 -170 241 -170 488 l0 152 140 0 c229 0 349 36 476 140 l59
49 18 -22 c9 -12 31 -39 47 -59z m-918 -265 c2 -87 2 -160 1 -162 -2 -2 -23 4
-48 13 -62 24 -97 72 -103 139 -4 60 20 106 77 144 67 46 69 42 73 -134z
m1567 136 c20 -11 45 -32 55 -46 27 -36 33 -121 12 -161 -19 -36 -70 -77 -108
-86 l-28 -6 0 160 c0 179 0 179 69 139z m-1065 -1126 l126 -158 -117 -117
c-64 -65 -118 -116 -120 -114 -2 1 -26 115 -53 252 -27 137 -52 259 -55 272
-5 21 -2 22 44 22 l49 0 126 -157z m386 153 c0 -2 -31 -42 -69 -90 l-69 -86
-63 77 c-34 43 -67 84 -72 91 -7 9 20 12 132 12 77 0 141 -2 141 -4z m327 -18
c-3 -13 -26 -129 -52 -258 -25 -129 -49 -243 -53 -253 -6 -14 -28 4 -124 100
l-117 118 126 158 127 157 49 0 c46 0 49 -1 44 -22z m-1098 -70 c6 -29 40
-197 75 -373 71 -355 71 -355 149 -355 40 0 46 6 227 185 l185 185 185 -185
c181 -181 186 -185 227 -185 69 0 71 6 153 414 40 201 76 366 81 366 19 0 109
-45 170 -86 79 -52 179 -157 228 -238 18 -31 47 -95 64 -143 30 -84 31 -96 35
-280 l4 -193 -1152 0 -1152 0 5 182 c5 206 15 257 76 383 72 148 183 260 332
334 45 23 85 41 89 41 5 0 13 -24 19 -52z"/>
<path d="M3263 2129 c-70 -27 -146 -97 -180 -167 -24 -49 -28 -69 -28 -142 0
-76 4 -92 33 -152 59 -120 160 -182 297 -183 71 0 88 4 147 33 73 36 124 87
160 161 19 37 23 63 23 136 0 78 -4 97 -28 146 -76 156 -263 230 -424 168z
m183 -168 c107 -49 131 -174 49 -256 -74 -74 -205 -54 -249 39 -39 83 -9 172
74 214 53 27 73 27 126 3z"/>
<path d="M2692 1544 c-87 -43 -132 -121 -132 -226 0 -76 22 -129 75 -180 93
-90 254 -90 348 0 72 68 96 188 57 280 -24 56 -83 116 -136 138 -56 23 -152
18 -212 -12z m162 -165 c43 -34 35 -99 -16 -125 -24 -12 -33 -13 -55 -2 -42
20 -59 58 -44 95 21 52 72 66 115 32z"/>
</g>
</svg>
